<?xml version="1.0" encoding="utf-8" ?>
<svg xmlns="http://www.w3.org/2000/svg" xmlns:xlink="http://www.w3.org/1999/xlink" width="1024" height="1024">
	<defs>
		<linearGradient id="gradient_0" gradientUnits="userSpaceOnUse" x1="301.67789" y1="126.50773" x2="210.8775" y2="42.432457">
			<stop offset="0" stop-color="#BACEF5"/>
			<stop offset="1" stop-color="#E2F3F5"/>
		</linearGradient>
	</defs>
	<path fill="url(#gradient_0)" transform="scale(2 2)" d="M263.915 125.769C246.26 125.798 194.331 124.594 193.079 104.678C192.64 97.6977 193.018 90.5445 192.997 83.5463C192.976 76.8328 191.003 63.3093 195.886 57.9873C205.931 47.0384 234.513 43.683 248.951 43.0851C269.2 43.0191 301.656 43.5002 316.529 57.592C322.031 62.805 319.844 82.7438 319.863 90.3495C319.874 94.7989 320.429 102.46 319.565 106.567C316.474 121.251 275.802 125.583 263.915 125.769Z"/>
	<defs>
		<linearGradient id="gradient_1" gradientUnits="userSpaceOnUse" x1="435.67896" y1="189.17427" x2="367.31821" y2="99.060661">
			<stop offset="0" stop-color="#B6D0F4"/>
			<stop offset="1" stop-color="#E9F3F6"/>
		</linearGradient>
	</defs>
	<path fill="url(#gradient_1)" transform="scale(2 2)" d="M413.689 185.326C393.28 186.393 355.323 185.026 341.353 170.585C337.248 166.342 339.127 156.168 339.155 150.851C339.199 142.655 336.889 123.052 342.818 117.345C352.507 108.02 376.438 103.517 389.675 103.724C405.347 100.231 444.665 106.144 457.252 114.001C464.942 118.801 463.823 122.766 463.776 130.804L463.794 158.021C463.82 162.022 464.35 165.97 461.867 169.416C452.738 182.088 428.262 182.866 413.689 185.326Z"/>
	<defs>
		<linearGradient id="gradient_2" gradientUnits="userSpaceOnUse" x1="151.95259" y1="187.79715" x2="70.42411" y2="101.02336">
			<stop offset="0" stop-color="#B6CDF6"/>
			<stop offset="1" stop-color="#E6F3F5"/>
		</linearGradient>
	</defs>
	<path fill="url(#gradient_2)" transform="scale(2 2)" d="M120.188 185.902C102.077 184.84 52.0027 186.953 49.6764 164.138C48.8733 156.262 48.5914 129.846 49.8688 122.658C52.6138 107.212 89.4883 104.894 101.669 103.724C119.389 103.706 170.716 104.574 172.746 123.973C173.005 126.439 172.836 129.033 172.826 131.519L172.81 159.283C172.822 163.39 173.575 167.824 170.708 171.179C161.859 181.535 133.48 185.049 120.188 185.902Z"/>
	<defs>
		<linearGradient id="gradient_3" gradientUnits="userSpaceOnUse" x1="415.91534" y1="268.4046" x2="97.389626" y2="239.97957">
			<stop offset="0" stop-color="#6E8EEE"/>
			<stop offset="1" stop-color="#72C3FA"/>
		</linearGradient>
	</defs>
	<path fill="url(#gradient_3)" transform="scale(2 2)" d="M265.062 348.389C210.621 348.447 166.963 333.487 125.292 296.276C89.6157 264.418 85.076 250.286 120.488 216.129C155.308 182.543 200.665 162.691 248.951 160.059C296.101 158.875 340.079 174.592 376.706 204.186C386.63 212.204 416.573 239.9 417.698 252.739C418.414 260.912 411.955 268.532 407.084 274.466C369.268 320.527 322.875 342.696 265.062 348.389ZM284.885 207.229C261.81 193.547 232.263 198.233 214.555 218.384C199.042 236.037 196.261 261.52 207.601 282.103C218.941 302.686 241.968 313.951 265.178 310.269C288.388 306.588 306.799 288.751 311.214 265.669C315.628 242.587 305.098 219.215 284.885 207.229Z"/>
	<path fill="#B6E5F8" transform="scale(2 2)" d="M214.555 218.384C232.263 198.233 261.81 193.547 284.885 207.229L284.602 208.22C283.491 208.127 282.712 208.861 281.71 209.189C273.659 211.827 264.779 211.078 256.53 212.495C248.782 213.827 227.002 219.683 220.569 219.13C217.019 218.824 219.082 217.616 214.555 218.384Z"/>
	<defs>
		<linearGradient id="gradient_4" gradientUnits="userSpaceOnUse" x1="253.30408" y1="209.19792" x2="259.64749" y2="310.78763">
			<stop offset="0" stop-color="#A5F6E7"/>
			<stop offset="1" stop-color="#6CB5F3"/>
		</linearGradient>
	</defs>
	<path fill="url(#gradient_4)" transform="scale(2 2)" d="M284.885 207.229C305.098 219.215 315.628 242.587 311.214 265.669C306.799 288.751 288.388 306.588 265.178 310.269C241.968 313.951 218.941 302.686 207.601 282.103C196.261 261.52 199.042 236.037 214.555 218.384C219.082 217.616 217.019 218.824 220.569 219.13C227.002 219.683 248.782 213.827 256.53 212.495C264.779 211.078 273.659 211.827 281.71 209.189C282.712 208.861 283.491 208.127 284.602 208.22L284.885 207.229ZM254.912 236.114C247.298 236.642 240.244 240.859 237.299 248.044C238.374 246.629 239.147 245.028 240.233 243.645C246.361 242.85 250.805 241.171 257.657 241.123C267.651 241.259 269.91 239.761 273.61 248.979L273.524 249.181L273.732 249.136C272.887 241.022 262.11 235.808 254.912 236.114Z"/>
	<path fill="#B6E5F8" transform="scale(2 2)" d="M240.233 243.645C239.147 245.028 238.374 246.629 237.299 248.044C240.244 240.859 247.298 236.642 254.912 236.114C262.11 235.808 272.887 241.022 273.732 249.136L273.524 249.181L273.61 248.979C269.91 239.761 267.651 241.259 257.657 241.123C250.805 241.171 246.361 242.85 240.233 243.645Z"/>
	<path fill="#B6E5F8" transform="scale(2 2)" d="M116.647 404.626C98.8541 404.747 51.3131 402.161 49.4257 382.053C48.8948 376.397 49.3915 370.429 49.3847 364.734L49.3276 350.619C49.3057 345.725 48.4227 340.175 51.837 336.186C61.6101 324.768 90.989 322.683 105.181 321.53C122.474 320.948 155.653 323.157 168.49 335.675C174.091 341.137 171.85 359.833 171.882 367.659C171.912 375.102 173.943 384.332 168.155 390.158C157.823 400.558 131.122 404.665 116.647 404.626Z"/>
	<defs>
		<linearGradient id="gradient_5" gradientUnits="userSpaceOnUse" x1="442.09717" y1="405.00314" x2="362.04984" y2="319.90311">
			<stop offset="0" stop-color="#BCD1F6"/>
			<stop offset="1" stop-color="#E5F1F5"/>
		</linearGradient>
	</defs>
	<path fill="url(#gradient_5)" transform="scale(2 2)" d="M409.312 404.626C395.805 404.681 342.283 402.62 341.248 382.18C340.895 375.215 340.433 346.026 341.534 340.712C344.605 325.898 384.048 322.643 395.928 322.035C413.259 321.884 431.099 322.237 447.483 328.504C467.402 336.125 463.685 343.447 463.734 361.698C463.752 368.618 464.407 376.349 463.057 383.154C459.638 400.381 424.748 402.928 409.312 404.626Z"/>
	<defs>
		<linearGradient id="gradient_6" gradientUnits="userSpaceOnUse" x1="299.70502" y1="465.88718" x2="212.41151" y2="381.48373">
			<stop offset="0" stop-color="#B9CFF4"/>
			<stop offset="1" stop-color="#E8F3F5"/>
		</linearGradient>
	</defs>
	<path fill="url(#gradient_6)" transform="scale(2 2)" d="M265.898 465.348C247.461 466.975 213.722 463.585 198.587 451.872C192.071 446.829 192.685 441.955 192.925 434.617C193.126 428.484 191.54 402.961 194.504 399.381C204.398 387.429 233.14 384.797 247.231 383.229C265.936 383.202 318.736 383.79 319.871 406.231C320.211 412.961 320.533 439.876 319.427 444.532C315.718 460.144 278.791 464.824 265.898 465.348Z"/>
</svg>
